<svg width="25" height="30" viewBox="0 0 25 30" fill="none" xmlns="http://www.w3.org/2000/svg">
<path fill-rule="evenodd" clip-rule="evenodd" d="M18.1758 0C18.2882 3.98883 15.39 6.75609 12.4951 6.58254C12.0181 3.39932 15.3896 0 18.1758 0ZM0 16.2182C0 20.8599 3.75231 29.9743 8.28857 30H8.31821C9.44592 30 10.4402 29.6348 11.3189 29.312L11.3266 29.3091C11.971 29.0713 12.5797 28.8473 13.0611 28.8473C14.0107 28.8473 14.5854 29.0876 15.2516 29.3666L15.252 29.3667C15.9103 29.6422 16.6567 29.9545 17.7125 29.9545C22.0281 29.9545 25 22.0847 25 21.7182C25 21.1579 24.5664 20.9012 24.1468 20.6527L24.1446 20.6514L24.1433 20.6506C23.1906 20.0864 21.2102 18.9137 21.2102 15.8663C21.2102 13.2926 22.9599 11.9931 23.9192 11.2806L23.9196 11.2804L24.591 10.7817L24.1245 10.0916C22.1328 7.14762 18.8199 6.9116 17.7273 6.9116H17.7186C16.2554 6.9116 14.9988 7.40338 13.989 7.79906L13.9687 7.80699C13.5002 7.98954 12.9759 8.19387 12.7516 8.19387C12.3714 8.19387 11.6877 7.94666 11.0267 7.70719C10.0814 7.36389 9.00972 6.97594 8.00604 6.97594C5.77889 6.97594 0 8.6359 0 16.2182Z" fill="#303041"/>
</svg>
