<svg width="633" height="694" viewBox="0 0 633 694" fill="none" xmlns="http://www.w3.org/2000/svg">
<circle cx="391.5" cy="202.5" r="201.5" fill="#303030" fill-opacity="0.01" stroke="#68B259"/>
<path d="M633 377.5C633 552.298 491.299 694 316.501 694C141.702 694 0 552.298 0 377.5C0 202.703 141.702 61 316.501 61C491.299 61 633 202.703 633 377.5Z" fill="#EEEEEF"/>
<path d="M117.834 323.19C117.969 323.002 117.94 322.739 117.762 322.582C80.525 289.851 58.1662 250.54 45.9676 223.326C32.7449 193.828 28.2754 171.79 28.2319 171.571C28.1821 171.32 27.9391 171.159 27.6889 171.21C27.4392 171.261 27.2769 171.504 27.3259 171.751C27.3694 171.97 31.8534 194.09 45.1129 223.679C57.3503 250.983 79.7817 290.427 117.151 323.276C117.343 323.444 117.634 323.421 117.803 323.233C117.815 323.217 117.825 323.205 117.834 323.19Z" fill="#68B259" fill-opacity="0.13"/>
<path d="M31.5082 185.938C31.5082 185.938 17.0603 178.166 21.0726 146.272C21.0726 146.272 44.8986 167.096 31.5082 185.938Z" fill="#68B259" fill-opacity="0.13"/>
<path d="M33.493 197.804C33.8714 197.67 25.0498 184.02 1.36401 184.22C1.36401 184.22 19.403 202.78 33.493 197.804Z" fill="#68B259" fill-opacity="0.13"/>
<path d="M38.805 214.021C38.805 214.021 28.1429 204.887 3.22852 211.601C3.22852 211.601 30.8884 223.315 38.805 214.021Z" fill="#68B259" fill-opacity="0.13"/>
<path d="M47.3124 231.845C47.554 231.526 32.6588 225.01 13.019 238.243C13.019 238.243 38.3118 243.768 47.3124 231.845Z" fill="#68B259" fill-opacity="0.13"/>
<path d="M54.1238 245.314C54.1238 245.314 41.5795 244.495 27.2444 262.619C27.2444 262.619 53.3922 256.188 54.1238 245.314Z" fill="#68B259" fill-opacity="0.13"/>
<path d="M64.6193 263.02C64.6193 263.02 54.2211 266.496 48.6353 285.86C48.6353 285.86 67.6202 272.041 64.6193 263.02Z" fill="#68B259" fill-opacity="0.13"/>
<path d="M36.6365 197.504C36.2972 197.61 35.307 183.236 52.2327 170.804C52.2327 170.804 49.2855 193.56 36.6365 197.504Z" fill="#68B259" fill-opacity="0.13"/>
<path d="M43.0786 212.625C43.0786 212.625 46.1442 198.929 70.1191 189.393C70.1191 189.393 54.988 215.332 43.0786 212.625Z" fill="#68B259" fill-opacity="0.13"/>
<path d="M52.331 231.133C51.9459 231.024 59.9694 216.888 83.6273 215.729C83.6273 215.729 66.6832 235.292 52.331 231.133Z" fill="#68B259" fill-opacity="0.13"/>
<path d="M58.3469 244.294C58.3469 244.294 67.9013 236.128 90.2408 242.059C90.2408 242.059 65.4487 252.563 58.3469 244.294Z" fill="#68B259" fill-opacity="0.13"/>
<path d="M68.0503 261.585C68.0503 261.585 78.4609 258.146 94.5367 270.308C94.5367 270.308 71.0523 270.606 68.0503 261.585Z" fill="#68B259" fill-opacity="0.13"/>
<path d="M515.617 442.069C515.271 442.069 514.981 441.916 514.981 441.723V336.065C514.981 335.875 515.271 335.716 515.617 335.716C515.971 335.716 516.247 335.875 516.247 336.065V441.723C516.247 441.916 515.971 442.069 515.617 442.069" fill="#363E44"/>
<path d="M515.326 641.773L235.335 641.752H99.1103C98.9195 641.752 98.7639 641.6 98.7639 641.406L98.7639 144.787C98.7639 144.595 98.9195 144.44 99.1103 144.44H192.883C193.073 144.44 193.229 144.595 193.229 144.787C193.229 144.979 193.073 145.13 192.883 145.13H99.4563L99.4563 641.06H235.335L514.979 641.081V145.13H415.404C415.212 145.13 415.057 144.979 415.057 144.787C415.057 144.595 415.212 144.44 415.404 144.44H515.326C515.518 144.44 515.673 144.595 515.673 144.787V641.427C515.673 641.52 515.636 641.607 515.571 641.672C515.506 641.735 515.42 641.773 515.326 641.773Z" fill="#40484C"/>
<path d="M141.49 605.763H472.949L472.949 159.973L141.49 159.973L141.49 605.763Z" fill="#F8F8F8"/>
<path d="M427.804 248.814L186.637 248.814V240.351L427.804 240.351V248.814Z" fill="#EEEEEF"/>
<path d="M427.803 349.962L186.636 349.962V256.521H427.803V349.962Z" fill="#EEEEEF"/>
<path d="M427.803 375.656L186.636 375.656V367.192L427.803 367.192V375.656Z" fill="#EEEEEF"/>
<path d="M427.803 476.801L186.636 476.801V383.363H427.803V476.801Z" fill="#EEEEEF"/>
<path d="M427.803 527.064H186.636V499.506H427.803V527.064" fill="#EEEEEF"/>
<path d="M427.803 569.192H186.636V541.637H427.803V569.192Z" fill="#EEEEEF"/>
<path fill-rule="evenodd" clip-rule="evenodd" d="M299.53 69.8125C326.479 69.8125 348.325 91.6467 348.325 118.58L401.829 118.58V182.852L197.229 182.852V118.58H250.735C250.735 91.6467 272.58 69.8125 299.53 69.8125ZM299.53 82.6479C279.671 82.6479 263.574 98.734 263.574 118.58H335.484C335.484 98.734 319.388 82.6479 299.53 82.6479Z" fill="white"/>
<path fill-rule="evenodd" clip-rule="evenodd" d="M204.92 175.507L409.523 175.507C409.715 175.507 409.872 175.351 409.872 175.163V110.891C409.872 110.703 409.715 110.547 409.523 110.547L356.361 110.547C356.177 83.6244 334.202 61.7781 307.221 61.7781C280.24 61.7781 258.27 83.6244 258.083 110.547H204.92C204.729 110.547 204.574 110.703 204.574 110.891V175.163C204.574 175.351 204.729 175.507 204.92 175.507ZM205.267 174.814L409.178 174.814V111.24L356.016 111.24C355.823 111.24 355.667 111.084 355.667 110.891C355.667 84.1935 333.935 62.4711 307.221 62.4711C280.506 62.4711 258.772 84.1935 258.772 110.891C258.772 111.084 258.616 111.24 258.425 111.24H205.267V174.814ZM343.177 111.24H271.266C271.075 111.24 270.919 111.084 270.919 110.891C270.919 90.8897 287.206 74.6105 307.221 74.6105C327.238 74.6105 343.521 90.8897 343.521 110.891C343.521 111.084 343.365 111.24 343.177 111.24ZM271.615 110.547H342.829C342.643 91.0824 326.74 75.3035 307.221 75.3035C287.701 75.3035 271.802 91.0824 271.615 110.547Z" fill="#68B259"/>
<path d="M324.961 204.56L270.185 273.97L177.155 200.634L231.928 131.224L324.961 204.56Z" fill="#EEBC3C"/>
<path d="M304.518 255.199L227.37 298.439L169.417 195.146L246.56 151.91L304.518 255.199Z" fill="white"/>
<path fill-rule="evenodd" clip-rule="evenodd" d="M187.801 203.233C188.815 205.041 190.7 206.06 192.64 206.06C193.557 206.06 194.485 205.831 195.34 205.351C198.003 203.86 198.954 200.48 197.461 197.815L188.754 182.299C187.261 179.639 183.879 178.686 181.216 180.181C179.925 180.901 178.994 182.082 178.593 183.507C178.192 184.932 178.37 186.423 179.094 187.713L187.801 203.233ZM181.554 180.781C182.302 180.363 183.114 180.165 183.916 180.165C185.613 180.165 187.263 181.056 188.151 182.636L196.857 198.156C198.164 200.484 197.331 203.442 195.001 204.747C193.872 205.382 192.565 205.537 191.318 205.185C190.072 204.836 189.037 204.023 188.404 202.892L179.698 187.376C179.065 186.249 178.909 184.94 179.259 183.693C179.61 182.45 180.424 181.416 181.554 180.781Z" fill="#D3BBA3"/>
<path d="M211.653 183.135C211.532 183.135 211.414 183.071 211.351 182.961C211.257 182.795 211.317 182.581 211.483 182.49L242.535 165.086C242.701 164.991 242.912 165.05 243.006 165.216C243.099 165.383 243.04 165.596 242.874 165.687L211.822 183.091C211.768 183.123 211.71 183.135 211.653 183.135Z" fill="#EEEEEF"/>
<path d="M215.829 190.579C215.708 190.579 215.59 190.516 215.527 190.403C215.433 190.235 215.493 190.024 215.659 189.93L246.712 172.527C246.878 172.433 247.09 172.492 247.183 172.66C247.276 172.824 247.218 173.036 247.052 173.129L215.998 190.532C215.944 190.563 215.886 190.579 215.829 190.579Z" fill="#EEEEEF"/>
<path d="M220.004 198.022C219.883 198.022 219.766 197.956 219.702 197.844C219.608 197.678 219.668 197.466 219.835 197.373L250.886 179.969C251.052 179.876 251.263 179.934 251.357 180.1C251.45 180.266 251.391 180.479 251.225 180.572L220.173 197.976C220.12 198.007 220.062 198.022 220.004 198.022Z" fill="#EEEEEF"/>
<path d="M202.746 237.042C202.625 237.042 202.508 236.978 202.444 236.867C202.351 236.699 202.41 236.486 202.577 236.393L263.414 202.296C263.578 202.203 263.791 202.263 263.884 202.427C263.977 202.595 263.918 202.807 263.754 202.9L202.915 236.997C202.862 237.027 202.803 237.042 202.746 237.042Z" fill="#EEEEEF"/>
<path d="M206.922 244.485C206.801 244.485 206.683 244.422 206.619 244.308C206.526 244.142 206.586 243.932 206.752 243.837L267.587 209.738C267.756 209.646 267.97 209.704 268.062 209.87C268.154 210.04 268.091 210.249 267.926 210.341L207.091 244.441C207.037 244.47 206.979 244.485 206.922 244.485" fill="#EEEEEF"/>
<path fill-rule="evenodd" clip-rule="evenodd" d="M248.593 214.614C250.406 216.438 252.77 218.016 255.532 218.016C256.068 218.016 256.619 217.957 257.182 217.831C260.81 217.005 263.097 213.418 263.755 210.228C263.81 209.965 263.855 209.698 263.897 209.434C264.402 209.615 264.921 209.757 265.454 209.855C269.912 210.677 274.733 208.25 276.667 204.207C276.84 203.845 276.989 203.476 277.114 203.098C277.795 203.456 278.519 203.7 279.267 203.818C281.636 204.195 284.185 203.279 286.086 201.376C287.991 199.468 288.903 196.92 288.526 194.552C288.494 194.367 288.317 194.237 288.128 194.265C287.939 194.296 287.81 194.473 287.841 194.662C288.183 196.813 287.345 199.138 285.598 200.888C283.851 202.634 281.525 203.476 279.377 203.138C278.657 203.023 277.956 202.776 277.307 202.418C278.228 198.67 276.885 194.395 273.844 192.035C273.76 191.972 273.656 191.949 273.556 191.972C273.456 191.996 273.369 192.059 273.324 192.153C272.234 194.289 272.31 196.994 273.535 199.389C274.252 200.801 275.286 201.954 276.501 202.74C276.377 203.138 276.224 203.531 276.044 203.908C274.238 207.676 269.739 209.945 265.579 209.174C265.032 209.076 264.499 208.923 263.983 208.73C264.281 205.741 263.731 202.689 263.236 199.948C262.755 197.285 261.744 195.822 260.235 195.594C259.439 195.476 258.699 195.728 258.093 196.322C257.11 197.289 256.577 199.083 256.792 200.691C257.293 204.408 259.865 207.684 263.232 209.171C263.191 209.477 263.142 209.784 263.077 210.087C262.464 213.06 260.356 216.399 257.027 217.154C253.881 217.87 251.167 216.21 249.14 214.189C249.16 214.171 249.181 214.154 249.201 214.136C249.253 214.092 249.304 214.048 249.354 214C251.842 211.707 252.881 208.341 253.563 205.352C255.584 196.53 255.597 187.205 253.6 178.376C252.586 173.893 249.783 168.819 245.26 169.287C241.145 169.708 239.179 174.494 238.709 178.828C237.566 189.451 239.798 200.44 245 209.768C245.512 210.693 246.586 212.451 248.108 214.106C245.9 215.609 242.664 215.998 240.671 214.169C240.529 214.039 240.311 214.051 240.183 214.193C240.055 214.33 240.062 214.551 240.204 214.68C242.55 216.828 246.163 216.328 248.593 214.614ZM245.828 169.948C245.665 169.948 245.499 169.956 245.329 169.976C241.626 170.353 239.837 174.837 239.397 178.903C238.269 189.384 240.473 200.223 245.606 209.434C246.108 210.335 247.167 212.073 248.662 213.689C248.738 213.626 248.811 213.56 248.884 213.493C251.237 211.326 252.23 208.085 252.891 205.198C254.888 196.479 254.899 187.257 252.926 178.53C252.012 174.494 249.621 169.948 245.828 169.948ZM258.577 196.817C258.954 196.444 259.384 196.255 259.854 196.255C259.944 196.255 260.038 196.263 260.131 196.279C261.318 196.456 262.132 197.734 262.554 200.07C263.028 202.697 263.554 205.619 263.312 208.447C260.256 207.019 257.937 204.007 257.48 200.597C257.293 199.216 257.754 197.624 258.577 196.817ZM274.151 199.079C273.103 197.022 272.964 194.733 273.757 192.861C276.29 195.052 277.413 198.741 276.688 202.032C275.657 201.317 274.774 200.302 274.151 199.079Z" fill="#363E44"/>
<path d="M603.361 215.271L467.325 215.271V84.0152L603.361 84.0152V215.271Z" fill="white"/>
<path fill-rule="evenodd" clip-rule="evenodd" d="M471.533 215.613L607.573 215.613C607.764 215.613 607.916 215.457 607.916 215.266V84.0131C607.916 83.8215 607.764 83.6656 607.573 83.6656L471.533 83.6656C471.346 83.6656 471.19 83.8215 471.19 84.0131V215.266C471.19 215.457 471.346 215.613 471.533 215.613ZM607.225 214.923L471.881 214.923V84.3561L607.225 84.3561V214.923Z" fill="#68B259"/>
<path d="M530.531 123.664H520.23V113.565H530.531V123.664Z" fill="#EEEEEF"/>
<path d="M551.162 123.664H540.857V113.565H551.162V123.664Z" fill="#EEEEEF"/>
<path d="M489.27 143.883H478.965V133.783H489.27V143.883Z" fill="#EEEEEF"/>
<path d="M509.9 143.883H499.595V133.783H509.9V143.883Z" fill="#EEEEEF"/>
<path d="M530.53 143.883H520.225V133.783H530.53V143.883Z" fill="#EEEEEF"/>
<path d="M551.16 143.883H540.855V133.783H551.16V143.883Z" fill="#EEEEEF"/>
<path d="M489.272 164.096H478.969V153.996H489.272V164.096Z" fill="#EEEEEF"/>
<path d="M509.901 164.096H499.594V153.996H509.901V164.096Z" fill="#EEEEEF"/>
<path d="M530.534 164.096H520.231V153.996H530.534V164.096Z" fill="#EEEEEF"/>
<path d="M551.164 164.095H540.856V153.997H551.164V164.095Z" fill="#EEEEEF"/>
<path d="M489.269 184.315H478.968V174.215H489.269V184.315Z" fill="#EEEEEF"/>
<path d="M509.898 184.315H499.593V174.215H509.898V184.315Z" fill="#EEEEEF"/>
<path d="M530.534 184.31H520.231V174.212H530.534V184.31Z" fill="#EEEEEF"/>
<path d="M551.164 184.311H540.856V174.213H551.164V184.311Z" fill="#EEEEEF"/>
<path d="M571.794 123.664H561.484V113.565H571.794V123.664Z" fill="#EEEEEF"/>
<path d="M571.794 143.881H561.488V133.779H571.794V143.881Z" fill="#EEEEEF"/>
<path d="M571.794 164.093H561.488V153.995H571.794V164.093Z" fill="#EEEEEF"/>
<path d="M571.794 184.31H561.488V174.212H571.794V184.31Z" fill="#EEEEEF"/>
<path d="M592.006 123.661H581.702V113.561H592.006V123.661Z" fill="#EEEEEF"/>
<path d="M592.006 143.877H581.702V133.777H592.006V143.877Z" fill="#EEEEEF"/>
<path d="M592.006 164.093H581.702V153.993H592.006V164.093Z" fill="#EEEEEF"/>
<path d="M592.006 184.309H581.702V174.209H592.006V184.309Z" fill="#EEEEEF"/>
<path d="M489.269 204.121H478.968V194.022H489.269V204.121Z" fill="#EEEEEF"/>
<path d="M509.904 204.115H499.596V194.019H509.904V204.115Z" fill="#EEEEEF"/>
<path d="M530.534 204.116H520.231V194.017H530.534V204.116Z" fill="#EEEEEF"/>
<path d="M551.164 204.118H540.856V194.016H551.164V204.118Z" fill="#EEEEEF"/>
<path d="M571.794 204.118H561.488V194.02H571.794V204.118Z" fill="#EEEEEF"/>
<path d="M592.006 204.117H581.702V194.017H592.006V204.117Z" fill="#EEEEEF"/>
<path d="M603.784 101.583L467.346 101.583C467.156 101.583 466.997 101.301 466.997 100.954C466.997 100.599 467.156 100.317 467.346 100.317L603.784 100.317C603.979 100.317 604.129 100.599 604.129 100.954C604.129 101.301 603.979 101.583 603.784 101.583Z" fill="#68B259"/>
<path fill-rule="evenodd" clip-rule="evenodd" d="M479.536 92.8965C479.536 95.5801 481.725 97.759 484.405 97.759C487.095 97.759 489.279 95.5801 489.279 92.8965C489.279 90.2128 487.095 88.0295 484.405 88.0295C481.725 88.0295 479.536 90.2128 479.536 92.8965ZM480.231 92.8965C480.231 90.5936 482.106 88.7204 484.405 88.7204C486.714 88.7204 488.588 90.5936 488.588 92.8965C488.588 95.1949 486.714 97.0681 484.405 97.0681C482.106 97.0681 480.231 95.1949 480.231 92.8965Z" fill="#68B259"/>
<path fill-rule="evenodd" clip-rule="evenodd" d="M504.783 92.8965C504.783 95.5801 506.967 97.759 509.652 97.759C512.338 97.759 514.522 95.5801 514.522 92.8965C514.522 90.2128 512.338 88.0295 509.652 88.0295C506.967 88.0295 504.783 90.2128 504.783 92.8965ZM505.479 92.8965C505.479 90.5936 507.348 88.7204 509.652 88.7204C511.957 88.7204 513.831 90.5936 513.831 92.8965C513.831 95.1949 511.957 97.0681 509.652 97.0681C507.348 97.0681 505.479 95.1949 505.479 92.8965Z" fill="#68B259"/>
<path fill-rule="evenodd" clip-rule="evenodd" d="M530.03 92.8965C530.03 95.5801 532.21 97.759 534.895 97.759C537.585 97.759 539.765 95.5801 539.765 92.8965C539.765 90.2128 537.585 88.0295 534.895 88.0295C532.21 88.0295 530.03 90.2128 530.03 92.8965ZM530.721 92.8965C530.721 90.5936 532.596 88.7204 534.895 88.7204C537.204 88.7204 539.073 90.5936 539.073 92.8965C539.073 95.1949 537.204 97.0681 534.895 97.0681C532.596 97.0681 530.721 95.1949 530.721 92.8965Z" fill="#68B259"/>
<path fill-rule="evenodd" clip-rule="evenodd" d="M555.273 92.8965C555.273 95.5801 557.457 97.759 560.142 97.759C562.828 97.759 565.012 95.5801 565.012 92.8965C565.012 90.2128 562.828 88.0295 560.142 88.0295C557.457 88.0295 555.273 90.2128 555.273 92.8965ZM555.969 92.8965C555.969 90.5936 557.838 88.7204 560.142 88.7204C562.447 88.7204 564.321 90.5936 564.321 92.8965C564.321 95.1949 562.447 97.0681 560.142 97.0681C557.838 97.0681 555.969 95.1949 555.969 92.8965Z" fill="#68B259"/>
<path fill-rule="evenodd" clip-rule="evenodd" d="M580.52 92.8965C580.52 95.5801 582.704 97.759 585.39 97.759C588.075 97.759 590.259 95.5801 590.259 92.8965C590.259 90.2128 588.075 88.0295 585.39 88.0295C582.704 88.0295 580.52 90.2128 580.52 92.8965ZM581.211 92.8965C581.211 90.5936 583.081 88.7204 585.39 88.7204C587.689 88.7204 589.563 90.5936 589.563 92.8965C589.563 95.1949 587.689 97.0681 585.39 97.0681C583.081 97.0681 581.211 95.1949 581.211 92.8965Z" fill="#68B259"/>
<path d="M484.691 93.2408C484.344 93.2408 484.062 93.0876 484.062 92.8938V75.6286C484.062 75.4348 484.344 75.2816 484.691 75.2816C485.047 75.2816 485.328 75.4348 485.328 75.6286V92.8938C485.328 93.0876 485.047 93.2408 484.691 93.2408Z" fill="#68B259"/>
<path d="M509.946 93.2408C509.59 93.2408 509.309 93.0876 509.309 92.8938V75.6286C509.309 75.4348 509.59 75.2816 509.946 75.2816C510.294 75.2816 510.575 75.4348 510.575 75.6286V92.8938C510.575 93.0876 510.294 93.2408 509.946 93.2408Z" fill="#68B259"/>
<path d="M535.184 93.2408C534.839 93.2408 534.551 93.0876 534.551 92.8938V75.6286C534.551 75.4348 534.839 75.2816 535.184 75.2816C535.529 75.2816 535.817 75.4348 535.817 75.6286V92.8938C535.817 93.0876 535.529 93.2408 535.184 93.2408Z" fill="#68B259"/>
<path d="M560.431 93.2408C560.077 93.2408 559.798 93.0876 559.798 92.8938V75.6286C559.798 75.4348 560.077 75.2816 560.431 75.2816C560.776 75.2816 561.064 75.4348 561.064 75.6286V92.8938C561.064 93.0876 560.776 93.2408 560.431 93.2408Z" fill="#68B259"/>
<path d="M585.673 93.2408C585.328 93.2408 585.04 93.0876 585.04 92.8938V75.6286C585.04 75.4348 585.328 75.2816 585.673 75.2816C586.018 75.2816 586.306 75.4348 586.306 75.6286V92.8938C586.306 93.0876 586.018 93.2408 585.673 93.2408Z" fill="#68B259"/>
<path d="M505.422 146.034C503.145 146.034 501.001 145.088 499.537 143.433C498.127 141.832 497.498 139.76 497.773 137.597C498.052 135.371 499.37 133.375 501.389 132.12C503.658 130.707 506.535 130.44 509.28 131.386C509.459 131.449 509.559 131.645 509.496 131.824C509.434 132.007 509.234 132.103 509.054 132.041C506.506 131.161 503.845 131.407 501.752 132.708C499.917 133.854 498.715 135.667 498.457 137.685C498.211 139.648 498.778 141.528 500.058 142.974C501.385 144.479 503.345 145.346 505.422 145.346C505.426 145.346 505.43 145.346 505.434 145.346C508.033 145.342 510.264 144.008 511.411 141.782C512.274 140.098 512.282 138.306 511.427 137.109C510.602 135.959 509.492 135.279 508.212 135.146C506.719 134.988 505.109 135.592 503.799 136.797C503.658 136.926 503.441 136.918 503.311 136.776C503.182 136.638 503.191 136.417 503.332 136.288C504.784 134.95 506.59 134.279 508.283 134.458C509.763 134.613 511.048 135.388 511.99 136.705C512.995 138.118 513.008 140.181 512.024 142.099C510.756 144.558 508.295 146.03 505.434 146.034C505.43 146.034 505.43 146.034 505.422 146.034" fill="#FF4734"/>
<path d="M526.054 146.034C523.772 146.034 521.633 145.088 520.169 143.433C518.755 141.832 518.13 139.76 518.405 137.597C518.684 135.371 520.002 133.375 522.021 132.12C524.289 130.707 527.167 130.44 529.911 131.386C530.091 131.449 530.187 131.645 530.124 131.824C530.061 132.007 529.865 132.103 529.686 132.041C527.138 131.161 524.477 131.407 522.384 132.708C520.544 133.854 519.343 135.667 519.089 137.685C518.843 139.648 519.41 141.528 520.686 142.974C522.021 144.479 523.977 145.346 526.054 145.346C526.054 145.346 526.058 145.346 526.066 145.346C528.66 145.342 530.891 144.008 532.038 141.782C532.906 140.098 532.91 138.306 532.055 137.109C531.233 135.959 530.12 135.279 528.84 135.146C527.342 134.988 525.741 135.592 524.431 136.797C524.289 136.926 524.073 136.918 523.943 136.776C523.814 136.638 523.822 136.417 523.964 136.288C525.415 134.95 527.217 134.279 528.915 134.458C530.395 134.613 531.68 135.388 532.622 136.705C533.627 138.118 533.64 140.181 532.656 142.099C531.388 144.558 528.923 146.03 526.066 146.034C526.062 146.034 526.058 146.034 526.054 146.034" fill="#FF4734"/>
<path d="M460.314 649.399L501.854 641.17L483.804 588.319L443.439 602.975L460.314 649.399Z" fill="#BC8271"/>
<path d="M412.06 693.44L517.807 664.45L496.981 626.716L455.555 638.072L428.106 655.419C414.51 663.416 407.946 678.978 412.06 693.44" fill="#363E44"/>
<path d="M545.232 656.933L588.08 659.52L584.14 603.812L540.77 607.742L545.232 656.933Z" fill="#BC8271"/>
<path d="M487.502 686.134H597.156L587.061 644.238H544.104L513.035 653.709C497.811 657.829 487.362 671.101 487.502 686.134Z" fill="#363E44"/>
<path d="M560.434 350.263C564.961 362.148 568.239 375.66 572.561 389.988C595.453 465.916 592.209 626.622 592.209 626.622L535.608 625.207C535.608 625.207 514.501 518.846 505.128 449.866C497.458 468.179 482.974 511.181 482.974 511.181C482.974 511.181 492.346 580.586 497.035 602.298C478.29 609.538 459.754 613.371 436.753 619.756C409.203 527.504 403.314 514.633 414.808 479.673C429.624 434.636 467.058 352.985 479.591 335.446C506.538 340.385 533.486 345.319 560.434 350.263Z" fill="white"/>
<path d="M592.213 626.967C592.209 626.967 592.205 626.967 592.205 626.967L535.603 625.552C535.442 625.549 535.307 625.435 535.272 625.279C535.268 625.255 534.775 622.923 532.086 608.859C532.051 608.672 532.173 608.492 532.365 608.454C532.548 608.423 532.731 608.544 532.77 608.731C534.989 620.346 535.712 623.954 535.895 624.867L591.886 626.268C592.052 622.515 593.447 587.908 590.548 534.054C590.54 533.864 590.683 533.701 590.875 533.691C591.058 533.684 591.228 533.826 591.237 534.02C594.297 590.865 592.575 626.289 592.558 626.638C592.549 626.825 592.396 626.967 592.213 626.967Z" fill="#D3BBA3"/>
<path d="M456.371 226.76C456.371 250.998 436.708 270.651 412.454 270.651C388.203 270.651 368.54 250.998 368.54 226.76C368.54 202.518 388.203 182.87 412.454 182.87C436.708 182.87 456.371 202.518 456.371 226.76Z" fill="#EEBC3C"/>
<path d="M443.507 226.76C443.507 243.9 429.604 257.796 412.455 257.796C395.306 257.796 381.403 243.9 381.403 226.76C381.403 209.62 395.306 195.725 412.455 195.725C429.604 195.725 443.507 209.62 443.507 226.76Z" fill="#F2C144"/>
<path fill-rule="evenodd" clip-rule="evenodd" d="M376.273 234.829C376.273 259.22 396.131 279.068 420.535 279.068C444.94 279.068 464.798 259.22 464.798 234.829C464.798 210.438 444.94 190.594 420.535 190.594C396.131 190.594 376.273 210.438 376.273 234.829ZM376.965 234.829C376.965 210.821 396.515 191.285 420.535 191.285C444.556 191.285 464.106 210.821 464.106 234.829C464.106 258.841 444.556 278.373 420.535 278.373C396.515 278.373 376.965 258.841 376.965 234.829Z" fill="white"/>
<path d="M485.528 304.094C475.477 318.84 444.772 358.537 426.273 347.253C417.68 342.014 414.476 333.976 422.308 318.769C430.074 303.689 443.849 288.737 450.928 281.433C462.131 287.722 474.33 297.805 485.528 304.094Z" fill="#BC8271"/>
<path d="M424.425 314.634C409.326 315.817 374.448 318.61 370.97 318.852C364.463 319.297 332.902 321.796 333.203 326.382C333.403 329.315 349.199 328.36 351.962 328.412C348.726 329.186 331.613 330.54 331.522 333.218C331.424 336.127 353.367 336.33 353.538 336.376C351.181 336.649 333.861 338.28 334.184 340.797C334.562 343.72 352.701 343.608 355.65 343.423C355.447 343.79 342.74 344.256 342.723 347.147C342.705 349.727 357.219 349.783 359.219 350.084C364.466 350.718 374.112 350.557 385.075 350.924C410.818 351.786 422.33 351.089 434.845 349.255C439.699 348.544 451.734 345.915 454.795 335.452C445.993 329.329 433.23 320.756 424.425 314.634Z" fill="#BC8271"/>
<path d="M356.35 333.006C351.176 333.006 350.885 331.944 350.764 331.498C350.601 330.903 350.106 329.084 362.437 323.536C362.614 323.456 362.814 323.532 362.894 323.709C362.974 323.881 362.894 324.086 362.721 324.165C351.781 329.091 351.314 330.886 351.432 331.318C351.702 332.304 355.934 332.865 367.009 331.474C367.206 331.453 367.372 331.588 367.397 331.775C367.417 331.965 367.286 332.138 367.096 332.162C362.164 332.782 358.738 333.006 356.35 333.006Z" fill="#363E44"/>
<path d="M570.752 296.298C567.868 286.052 556.666 249.896 515.088 250.313C497.588 250.488 496.327 250.973 486.663 254.069C478.862 256.569 456.372 275.626 446.15 285.498C444.604 302.822 455.375 333.778 449.197 350.515C474.511 354.347 577.029 367.302 577.029 367.302C577.029 367.302 578.422 323.549 570.752 296.298Z" fill="#7655DA"/>
<path d="M500.185 305.411C439.081 343.268 455.029 351.278 461.875 361.547C467.387 369.819 498.805 359.271 524.819 343.233L500.185 305.411Z" fill="#BC8271"/>
<path d="M485.084 328.449C474.382 313.206 450.207 278.691 447.772 275.156C443.23 268.545 420.832 236.704 416.157 239.895C413.175 241.937 424.069 258.063 425.747 261.018C422.902 258.078 410.755 240.811 407.857 242.392C404.716 244.109 418.238 267.463 418.29 267.673C416.527 265.35 403.959 248.035 401.494 249.956C398.634 252.183 410.104 271.311 412.148 274.321C411.631 274.336 403.183 261.173 400.108 262.964C397.366 264.56 406.387 279.965 407.322 282.27C409.931 288.22 416.143 298.329 422.617 310.162C437.813 337.952 443.352 352.131 455.532 361.8C460.983 366.129 472.272 365.631 485.265 361.586C486.245 348.438 484.109 341.597 485.084 328.449Z" fill="#BC8271"/>
<path d="M454.543 285.208C454.435 285.208 454.326 285.159 454.26 285.061C450.423 279.574 448.146 276.307 447.488 275.351C446.195 273.471 439.377 263.632 432.35 254.825C432.234 254.678 432.255 254.458 432.406 254.339C432.553 254.22 432.774 254.244 432.889 254.395C439.935 263.218 446.763 273.075 448.059 274.959C448.717 275.915 450.995 279.182 454.827 284.665C454.936 284.822 454.897 285.036 454.743 285.145C454.684 285.187 454.613 285.208 454.543 285.208Z" fill="#363E44"/>
<path d="M484.37 326.606C484.26 326.606 484.153 326.551 484.086 326.459C482.501 324.2 480.688 321.617 478.734 318.832C478.623 318.677 478.664 318.46 478.822 318.349C478.977 318.239 479.191 318.279 479.301 318.434C481.255 321.219 483.069 323.802 484.654 326.061C484.761 326.215 484.724 326.433 484.566 326.543C484.507 326.584 484.44 326.606 484.37 326.606Z" fill="#363E44"/>
<path d="M442.445 346.825C442.321 346.825 442.203 346.759 442.141 346.645L424.529 314.414C424.439 314.248 424.501 314.037 424.667 313.947C424.837 313.854 425.048 313.916 425.138 314.082L442.747 346.313C442.84 346.483 442.778 346.694 442.608 346.784C442.556 346.811 442.501 346.825 442.445 346.825Z" fill="#363E44"/>
<path d="M526.739 346.534C526.722 346.534 526.706 346.53 526.685 346.526C526.59 346.513 526.504 346.46 526.45 346.373L497.94 302.599C497.891 302.521 497.87 302.426 497.895 302.331C497.916 302.24 497.977 302.162 498.06 302.113L526.999 285.482C527.163 285.387 527.378 285.445 527.469 285.609C527.568 285.778 527.51 285.988 527.345 286.083L498.72 302.533L526.821 345.681L555.319 322.935C555.467 322.811 555.686 322.836 555.805 322.988C555.925 323.137 555.9 323.355 555.752 323.474L526.957 346.46C526.895 346.505 526.817 346.534 526.739 346.534" fill="#363E44"/>
<path d="M498.314 240.439C503.721 244.28 519 233.857 519 233.857L527.741 215.579C527.741 206.254 520.177 198.69 510.843 198.69C501.513 198.69 493.945 206.254 493.945 215.579C493.945 215.579 492.804 236.53 498.314 240.439Z" fill="#BC8271"/>
<path d="M499.152 256.742C498.537 261.129 506.718 265.894 517.421 267.387C528.12 268.88 537.297 266.536 537.907 262.153C538.522 257.766 530.799 250.886 520.092 249.392C514.256 248.578 507.979 249.894 504.818 251.416C501.73 252.901 499.429 254.747 499.152 256.742Z" fill="#BC8271"/>
<path d="M527.724 257.946H506.837V215.247H527.724V257.946Z" fill="#BC8271"/>
<path d="M506.834 240.532C506.694 240.532 506.561 240.442 506.511 240.302C506.448 240.119 506.542 239.924 506.721 239.862C512.53 237.828 518.741 233.615 518.804 233.572C518.96 233.463 519.178 233.506 519.283 233.662C519.392 233.822 519.349 234.036 519.193 234.141C519.131 234.184 512.846 238.451 506.951 240.512C506.912 240.528 506.873 240.532 506.834 240.532Z" fill="#363E44"/>
<path d="M512.815 218.119C512.815 218.119 509.712 216.453 505.977 216.453C505.179 216.453 506.684 222.816 507.436 222.454C510.754 220.873 512.815 218.119 512.815 218.119Z" fill="white"/>
<path d="M503.527 216.715C498.802 217.76 495.7 221.901 495.7 221.901C495.7 221.901 500.257 224.354 504.986 223.309C505.859 223.114 506.682 222.815 507.44 222.452C508.003 220.397 507.516 218.12 505.97 216.459C505.177 216.463 504.354 216.531 503.527 216.715Z" fill="#363E44"/>
<path d="M492.232 212.601C491.655 210.021 495.7 195.569 510.323 194.715C518.323 194.248 527.893 196.454 534.462 205.787C543.552 218.704 546.532 250.92 546.532 250.92C546.532 250.92 514.791 259.168 513.16 260.859C511.014 259.168 524.69 231.121 522.059 229.028C526.499 224.563 526.511 220.012 525.039 218.241C523.852 216.806 520.901 215.299 517.092 218.525C516.132 216.006 512.136 212.841 506.343 212.601C502.936 212.459 492.232 212.601 492.232 212.601Z" fill="#363E44"/>
<path d="M500.122 232.17C499.492 232.17 498.862 231.897 498.41 231.381C498.281 231.241 498.297 231.021 498.441 230.896C498.585 230.767 498.801 230.782 498.93 230.926C499.42 231.483 500.239 231.639 500.835 231.282C501.32 230.994 501.59 230.414 501.522 229.811C501.499 229.622 501.635 229.447 501.825 229.428C502.015 229.402 502.185 229.542 502.208 229.732C502.311 230.608 501.909 231.449 501.188 231.878C500.858 232.075 500.49 232.17 500.122 232.17" fill="#363E44"/>
<path d="M491.502 226.294C491.708 225.189 492.968 224.537 493.935 223.653C494.505 223.128 494.79 222.585 494.932 222.12V228.452C494.46 228.418 493.871 228.362 493.406 228.261C492.345 228.029 491.329 227.238 491.502 226.294Z" fill="#BC8271"/>
<path d="M521.537 225.294C521.47 225.294 521.403 225.274 521.345 225.235C521.183 225.125 521.148 224.909 521.254 224.752C522.869 222.423 523.317 220.907 522.582 220.239C521.789 219.513 520.916 220.082 520.17 220.734C520.067 220.824 520.001 220.883 519.938 220.919C519.777 221.017 519.56 220.962 519.466 220.793C519.372 220.632 519.423 220.424 519.584 220.326C519.612 220.302 519.659 220.263 519.718 220.212C520.205 219.787 521.69 218.487 523.05 219.725C524.441 220.993 523.015 223.424 521.824 225.145C521.757 225.243 521.647 225.294 521.537 225.294" fill="#363E44"/>
<path d="M158.299 663.128L114.77 662.474L123.256 605.698L166.785 613.069L158.299 663.128" fill="#BC8271"/>
<path d="M219.116 692.007H106.395L116.774 648.939H160.934L192.868 658.676C208.518 662.914 219.261 676.556 219.116 692.007Z" fill="#363E44"/>
<path d="M57.4822 663.128L13.9531 662.474L22.4395 605.698L65.9686 613.069L57.4822 663.128Z" fill="#BC8271"/>
<path d="M118.3 692.007H5.57861L15.9578 648.939H60.1178L92.0512 658.676C107.702 662.914 118.444 676.556 118.3 692.007Z" fill="#363E44"/>
<path d="M118.3 692.353C118.294 692.353 118.287 692.353 118.281 692.353C118.09 692.343 117.944 692.18 117.954 691.99C117.959 691.883 118.423 681.208 110.654 671.229C110.537 671.077 110.564 670.859 110.715 670.745C110.866 670.627 111.083 670.655 111.2 670.804C119.134 680.997 118.651 691.918 118.645 692.025C118.635 692.212 118.483 692.353 118.3 692.353" fill="white"/>
<path d="M171.717 346.147C183.603 382.117 188.115 630.831 188.115 630.831L109.767 629.375C109.767 629.375 121.119 521.239 117.525 458.468C108.985 509.181 84.1189 616.957 79.9638 629.417C57.8025 628.725 28.9201 628.033 6.75879 627.341C30.3259 523.111 56.9656 391.578 79.8776 337.341C107.579 342.415 144.016 341.073 171.717 346.147Z" fill="#363E44"/>
<path d="M159.352 315.635C172.226 308.894 185.099 302.155 197.972 295.417C203.074 304.663 210.58 319.758 220.145 338.683C230.997 354.892 258.189 391.495 260.708 395.182C265.425 402.09 275.888 416.531 271.915 420.675C270.592 422.052 268.374 422.481 266.163 421.92C266.114 424.366 264.647 426.535 262.466 427.396C259.597 428.531 257.057 426.791 256.874 426.659C257.088 428.541 256.368 430.378 254.953 431.367C253.001 432.733 249.959 432.322 248.093 430.125C247.882 430.62 247.079 432.36 245.169 433.204C243.051 434.138 240.431 433.595 238.538 431.82C234.343 425.684 226.238 417.192 217.164 406.441C195.851 381.194 187.408 369.042 179.322 354.985C177.592 351.979 163.111 321.512 159.352 315.635" fill="#BC8271"/>
<path d="M170.939 253.774L247.46 368.631L204.811 400.997L122.297 299.039L170.939 253.774Z" fill="white"/>
<path d="M255.86 402.626C255.849 402.626 255.846 402.626 255.835 402.626C253.98 402.515 250.385 401.907 247.194 399.077C244.698 396.863 243.542 394.266 243.013 392.474C242.958 392.29 243.061 392.1 243.245 392.045C243.428 391.99 243.622 392.097 243.677 392.28C244.179 393.982 245.28 396.455 247.654 398.558C250.689 401.253 254.108 401.83 255.877 401.938C256.071 401.948 256.216 402.111 256.202 402.301C256.192 402.488 256.04 402.626 255.86 402.626Z" fill="#363E44"/>
<path fill-rule="evenodd" clip-rule="evenodd" d="M244.792 449.295C246.882 452.152 250.135 453.667 253.434 453.667C255.624 453.667 257.836 452.996 259.736 451.606L281.297 435.833C283.602 434.145 285.111 431.664 285.55 428.842C285.987 426.019 285.298 423.197 283.609 420.893L275.829 410.27C272.347 405.514 265.644 404.477 260.885 407.96L239.324 423.733C234.565 427.213 233.527 433.916 237.012 438.669L244.792 449.295ZM261.293 408.517C263.069 407.216 265.138 406.59 267.187 406.59C270.271 406.59 273.316 408.008 275.272 410.679L283.052 421.305C284.63 423.456 285.274 426.099 284.865 428.738C284.457 431.374 283.045 433.698 280.889 435.276L259.327 451.049C254.877 454.304 248.606 453.335 245.349 448.887L237.569 438.261C234.312 433.813 235.281 427.548 239.732 424.29L261.293 408.517Z" fill="#363E44"/>
<path d="M381.839 473.941L267.135 557.853L207.164 475.968L321.865 392.055L381.839 473.941Z" fill="#84524D"/>
<path d="M298.11 480.665C298.106 480.665 298.103 480.665 298.1 480.665L219.334 478.839C219.143 478.832 218.992 478.676 218.996 478.482C219 478.292 219.163 478.143 219.35 478.147L297.85 479.966L319.287 404.982C319.339 404.798 319.533 404.694 319.716 404.743C319.9 404.798 320.003 404.989 319.951 405.172L298.442 480.412C298.401 480.561 298.262 480.665 298.11 480.665Z" fill="#363E44"/>
<path d="M308.849 477.6L292.687 489.423L286.443 480.9L302.609 469.074L308.849 477.6Z" fill="#EEBC3C"/>
<path d="M238.254 427.749C236.946 424.888 235.257 420.533 239.365 418.686C240.85 418.019 242.802 418.665 244.186 419.914C244.283 420.001 244.428 419.911 244.387 419.793C243.657 417.738 244.574 415.438 246.571 414.407C248.357 413.484 250.267 414.048 251.949 415.206C252.063 415.289 252.205 415.162 252.129 415.044C250.717 412.941 251.035 410.374 252.814 409.074C254.503 407.842 257.244 408.026 258.974 409.714C259.064 409.8 259.213 409.72 259.182 409.603C258.784 408.077 259.255 406.5 260.393 405.566C262.03 404.228 265.581 404.435 267.803 407.766L238.254 427.749" fill="#BC8271"/>
<path d="M236.839 425.698C236.707 425.698 236.579 425.625 236.524 425.497C235.849 424.023 235.825 422.429 236.451 420.997C237.012 419.72 238.033 418.759 239.254 418.358C240.718 417.88 242.47 418.219 243.875 419.222C243.494 417.199 244.501 415.085 246.411 414.1C247.903 413.328 249.616 413.456 251.399 414.456C250.426 412.377 250.883 410.056 252.61 408.793C254.344 407.531 256.919 407.666 258.725 409.042C258.563 407.6 259.099 406.182 260.175 405.3C262.01 403.795 265.052 404.1 266.813 405.961C266.945 406.099 266.938 406.317 266.799 406.448C266.661 406.58 266.443 406.576 266.311 406.434C264.789 404.826 262.179 404.553 260.615 405.833C259.584 406.677 259.154 408.122 259.518 409.516C259.57 409.72 259.483 409.925 259.3 410.032C259.113 410.139 258.888 410.111 258.732 409.963C257.189 408.454 254.624 408.181 253.018 409.354C251.374 410.551 251.118 412.917 252.416 414.854C252.544 415.044 252.516 415.286 252.357 415.442C252.191 415.604 251.942 415.625 251.752 415.494C250.478 414.615 248.571 413.764 246.73 414.715C244.909 415.656 244.041 417.79 244.712 419.679C244.785 419.883 244.712 420.098 244.536 420.215C244.356 420.336 244.117 420.315 243.954 420.17C242.656 419.004 240.898 418.548 239.472 419.015C238.434 419.354 237.565 420.177 237.084 421.277C236.538 422.522 236.562 423.92 237.15 425.21C237.23 425.383 237.154 425.587 236.981 425.667C236.936 425.687 236.884 425.698 236.839 425.698" fill="#363E44"/>
<path d="M260.66 402.135C272.994 403.197 277.667 400.969 277.774 399.011C277.95 395.718 267.793 390.502 249.966 386.68C252.558 391.253 258.068 397.562 260.66 402.135Z" fill="#BC8271"/>
<path d="M70.6147 279.717C75.4077 262.656 91.8219 235.986 126.58 232.756C156.054 230.016 177.604 254.886 184.936 282.862C189.996 302.175 189.316 345.658 191.982 366.977C145.379 389.499 62.0776 369.909 62.0776 369.909C62.0776 369.909 62.6283 308.141 70.6147 279.717Z" fill="white"/>
<path d="M183.602 341.83C183.436 341.83 183.289 341.709 183.261 341.54C177.338 305.805 159.69 264.099 159.512 263.681C159.437 263.504 159.519 263.304 159.695 263.228C159.871 263.151 160.074 263.234 160.149 263.411C160.327 263.829 178.007 305.607 183.944 341.429C183.975 341.616 183.848 341.796 183.659 341.827C183.64 341.83 183.621 341.83 183.602 341.83Z" fill="#363E44"/>
<path d="M155.077 260.474L143.434 251.262C143.283 251.141 143.258 250.926 143.377 250.777C143.495 250.624 143.713 250.6 143.863 250.718L154.105 258.82L151.876 245.209C151.845 245.022 151.973 244.845 152.162 244.814C152.352 244.783 152.528 244.911 152.559 245.098L155.077 260.474Z" fill="#363E44"/>
<path d="M128.66 267.667L109.243 242.488C109.127 242.334 109.155 242.118 109.306 242.003C109.458 241.885 109.675 241.913 109.792 242.066L128.557 266.399L136.484 251.704C136.574 251.537 136.784 251.474 136.952 251.565C137.12 251.656 137.183 251.865 137.092 252.032L128.66 267.667" fill="#363E44"/>
<path d="M136.515 334.483C155.555 330.585 198.622 321.726 202.998 320.786C211.18 319.028 250.679 310.997 252.236 316.687C253.918 322.833 233.219 324.795 229.829 325.839C234.094 325.649 255.808 319.945 256.739 324.521C257.915 330.301 230.903 336.099 230.713 336.22C233.713 335.718 255.029 330.27 256.143 334.812C257.593 340.706 234.309 344.84 230.609 345.659C230.986 346.04 246.477 340.817 247.872 345.67C249.353 350.813 230.927 354.061 228.569 355.137C222.324 357.783 210.372 361 196.986 365.338C165.547 375.525 151.188 382.311 135.023 380.924C127.788 380.302 119.585 371.844 112.633 359.475C121.313 348.807 127.835 345.151 136.515 334.483Z" fill="#BC8271"/>
<path d="M183.773 373.598C183.773 373.598 125.725 389.416 108.066 377.946C97.9308 371.363 91.3298 343.809 91.3298 343.809L173.734 326.327L183.773 373.598Z" fill="white"/>
<path d="M103.732 374.044C103.597 374.044 103.468 373.965 103.413 373.833L78.4212 314.307C78.3471 314.13 78.4298 313.926 78.6063 313.854C78.7815 313.781 78.9856 313.864 79.0594 314.041L104.051 373.563C104.125 373.74 104.042 373.944 103.866 374.016C103.822 374.034 103.777 374.044 103.732 374.044" fill="#363E44"/>
<path d="M120.952 334.504C120.783 334.504 120.635 334.38 120.609 334.207C120.581 334.02 120.712 333.843 120.901 333.816L173.683 325.985C173.872 325.96 174.049 326.085 174.077 326.275C174.105 326.465 173.974 326.638 173.785 326.669L121.002 334.501C120.985 334.501 120.968 334.504 120.952 334.504Z" fill="#363E44"/>
<path d="M140.058 330.948C139.903 330.948 139.762 330.844 139.722 330.689L129.355 289.834C129.308 289.648 129.42 289.457 129.605 289.412C129.79 289.367 129.979 289.478 130.026 289.661L140.394 330.519C140.441 330.703 140.328 330.893 140.143 330.938C140.115 330.948 140.086 330.948 140.058 330.948Z" fill="#363E44"/>
<path d="M224.185 326.51C224.017 326.51 223.87 326.389 223.843 326.216C223.813 326.03 223.942 325.85 224.131 325.822L245.609 322.418C245.795 322.387 245.972 322.515 246.003 322.705C246.034 322.892 245.903 323.069 245.716 323.1L224.239 326.503C224.221 326.507 224.203 326.51 224.185 326.51Z" fill="#363E44"/>
<path d="M226.258 336.576C226.093 336.576 225.947 336.458 225.918 336.289C225.885 336.102 226.01 335.922 226.199 335.888L245.155 332.574C245.346 332.539 245.522 332.667 245.553 332.854C245.588 333.041 245.463 333.221 245.273 333.255L226.318 336.569C226.298 336.573 226.278 336.576 226.258 336.576" fill="#363E44"/>
<path d="M227.887 346.493C227.724 346.493 227.579 346.379 227.548 346.213C227.512 346.023 227.635 345.843 227.823 345.808L241.895 343.141C242.082 343.11 242.262 343.231 242.3 343.418C242.334 343.605 242.21 343.788 242.023 343.823L227.952 346.486C227.93 346.49 227.909 346.493 227.887 346.493Z" fill="#363E44"/>
<path d="M206.268 327.119C215.741 319.153 217.468 314.272 216.157 312.813C213.953 310.357 202.579 314.155 187.268 324.054C192.337 325.455 201.199 325.718 206.268 327.119Z" fill="#BC8271"/>
<path d="M202.998 321.132C202.838 321.132 202.695 321.021 202.66 320.858C202.62 320.671 202.739 320.488 202.926 320.447C204.577 320.094 209.031 319.156 214.727 318.105C214.913 318.067 215.095 318.191 215.13 318.382C215.165 318.568 215.04 318.748 214.853 318.783C209.165 319.834 204.719 320.772 203.071 321.125C203.047 321.132 203.022 321.132 202.998 321.132" fill="#363E44"/>
<path d="M146.058 222.243C140.416 226.248 124.359 216.617 124.359 216.617L114.51 196.262C114.51 186.535 123.365 177.908 133.099 177.908C142.833 177.908 150.724 185.794 150.724 195.522C150.724 195.522 151.803 218.164 146.058 222.243Z" fill="#BC8271"/>
<path d="M114.428 235.483L139.524 247.068V195.995H114.428V235.483Z" fill="#BC8271"/>
<path d="M131.043 198.174C131.043 198.174 134.277 196.435 138.175 196.435C139.005 196.435 137.44 203.07 136.653 202.694C133.191 201.042 131.043 198.174 131.043 198.174Z" fill="white"/>
<path d="M140.729 196.704C145.659 197.796 148.894 202.116 148.894 202.116C148.894 202.116 144.138 204.671 139.209 203.584C138.294 203.381 137.438 203.068 136.65 202.692C136.058 200.547 136.571 198.168 138.181 196.441C139.01 196.441 139.866 196.516 140.729 196.704Z" fill="#363E44"/>
<path d="M145.855 182.202C146.455 179.509 140.412 174.522 133.635 173.764C125.333 172.834 115.578 175.491 110.29 184.828C105.209 193.801 105.4 205.667 114.434 214.992C116.67 213.229 118.653 211.732 121.398 209.552C116.77 204.897 116.508 199.969 118.434 197.819C120.077 195.99 123.247 195.822 126.582 198.597C127.581 195.967 129.248 192.082 134.135 188.529C139.789 184.418 145.389 184.289 145.855 182.202Z" fill="#363E44"/>
<path d="M139.244 223.7C139.216 223.7 139.187 223.697 139.159 223.689C130.303 221.479 124.571 217.011 124.514 216.967C124.364 216.847 124.338 216.628 124.457 216.479C124.575 216.33 124.792 216.304 124.943 216.421C124.998 216.468 130.623 220.845 139.327 223.019C139.513 223.067 139.626 223.252 139.579 223.438C139.54 223.598 139.399 223.7 139.244 223.7" fill="#363E44"/>
<path d="M144.105 213.3C143.37 213.3 142.656 213.02 142.14 212.49C141.068 211.388 141.474 209.856 141.492 209.79C141.543 209.606 141.733 209.499 141.918 209.55C142.102 209.602 142.21 209.79 142.16 209.974C142.157 209.989 141.839 211.19 142.636 212.007C143.269 212.659 144.311 212.795 145.168 212.342C145.338 212.25 145.547 212.317 145.637 212.486C145.726 212.652 145.662 212.862 145.493 212.954C145.053 213.186 144.575 213.3 144.105 213.3" fill="#363E44"/>
<path d="M150.628 200.686C150.577 201.468 150.704 202.742 151.237 203.934C151.88 205.377 153.266 206.27 153.239 207.178C153.22 207.787 152.54 208.699 150.022 209.282L150.628 200.686Z" fill="#BC8271"/>
<path d="M122.843 207.28C122.742 207.28 122.642 207.235 122.574 207.153C120.036 204.039 119.63 201.142 120.705 200.142C121.841 199.085 124.326 200.172 125.062 200.532C125.233 200.614 125.305 200.82 125.221 200.992C125.137 201.165 124.931 201.236 124.758 201.15C123.822 200.696 121.87 200.003 121.176 200.648C120.459 201.315 120.732 203.795 123.11 206.714C123.231 206.864 123.209 207.082 123.061 207.202C122.997 207.254 122.919 207.28 122.843 207.28Z" fill="#363E44"/>
<path d="M395.99 659.648C395.99 667.618 375.581 674.076 350.404 674.076C325.229 674.076 304.821 667.618 304.821 659.648C304.821 651.682 325.229 645.224 350.404 645.224C375.581 645.224 395.99 651.682 395.99 659.648Z" fill="#F2C144"/>
<path d="M395.99 660.143H304.821V645.28H395.99V660.143Z" fill="#F2C144"/>
<path d="M395.99 645.56C395.99 653.529 375.581 659.987 350.404 659.987C325.229 659.987 304.821 653.529 304.821 645.56C304.821 637.594 325.229 631.132 350.404 631.132C375.581 631.132 395.99 637.594 395.99 645.56Z" fill="#EEBC3C"/>
<path fill-rule="evenodd" clip-rule="evenodd" d="M323.437 656.092C332.078 658.825 343.565 660.333 355.775 660.333C367.985 660.333 379.471 658.825 388.113 656.092C396.88 653.318 401.708 649.576 401.708 645.56C401.708 641.544 396.88 637.805 388.113 635.031C379.471 632.294 367.985 630.786 355.775 630.786C343.565 630.786 332.078 632.294 323.437 635.031C314.67 637.805 309.846 641.544 309.846 645.56C309.846 649.576 314.67 653.318 323.437 656.092ZM323.648 635.688C332.224 632.976 343.634 631.478 355.775 631.478C367.916 631.478 379.326 632.976 387.906 635.688C396.236 638.327 401.015 641.924 401.015 645.56C401.015 649.195 396.236 652.796 387.906 655.432C379.326 658.147 367.916 659.641 355.775 659.641C343.634 659.641 332.224 658.147 323.648 655.432C315.314 652.796 310.538 649.195 310.538 645.56C310.538 641.924 315.314 638.327 323.648 635.688Z" fill="white"/>
<path d="M405.386 636.169C405.386 644.135 384.978 650.593 359.803 650.593C334.626 650.593 314.217 644.135 314.217 636.169C314.217 628.199 334.626 621.741 359.803 621.741C384.978 621.741 405.386 628.199 405.386 636.169Z" fill="#F2C144"/>
<path d="M405.386 636.66H314.217V621.796H405.386V636.66Z" fill="#F2C144"/>
<path d="M405.386 622.077C405.386 630.046 384.978 636.504 359.803 636.504C334.626 636.504 314.217 630.046 314.217 622.077C314.217 614.11 334.626 607.652 359.803 607.652C384.978 607.652 405.386 614.11 405.386 622.077Z" fill="#EEBC3C"/>
<path fill-rule="evenodd" clip-rule="evenodd" d="M332.836 632.609C341.478 635.345 352.961 636.85 365.175 636.85C377.385 636.85 388.868 635.345 397.513 632.609C406.276 629.835 411.104 626.096 411.104 622.077C411.104 618.061 406.276 614.321 397.513 611.547C388.868 608.811 377.385 607.307 365.175 607.307C352.961 607.307 341.478 608.811 332.836 611.547C324.07 614.321 319.242 618.061 319.242 622.077C319.242 626.096 324.07 629.835 332.836 632.609ZM333.044 612.204C341.62 609.493 353.03 607.998 365.175 607.998C377.315 607.998 388.726 609.493 397.302 612.204C405.632 614.844 410.412 618.441 410.412 622.077C410.412 625.715 405.632 629.313 397.302 631.949C388.726 634.664 377.315 636.158 365.175 636.158C353.03 636.158 341.62 634.664 333.044 631.949C324.714 629.313 319.934 625.715 319.934 622.077C319.934 618.441 324.714 614.844 333.044 612.204Z" fill="white"/>
<path d="M395.99 612.685C395.99 620.651 375.581 627.113 350.404 627.113C325.229 627.113 304.821 620.651 304.821 612.685C304.821 604.716 325.229 598.258 350.404 598.258C375.581 598.258 395.99 604.716 395.99 612.685Z" fill="#F2C144"/>
<path d="M395.99 613.176H304.821V598.313H395.99V613.176Z" fill="#F2C144"/>
<path d="M395.99 598.593C395.99 606.563 375.581 613.021 350.404 613.021C325.229 613.021 304.821 606.563 304.821 598.593C304.821 590.627 325.229 584.169 350.404 584.169C375.581 584.169 395.99 590.627 395.99 598.593Z" fill="#EEBC3C"/>
<path fill-rule="evenodd" clip-rule="evenodd" d="M323.437 609.126C332.078 611.862 343.565 613.367 355.775 613.367C367.985 613.367 379.471 611.862 388.113 609.126C396.88 606.352 401.708 602.613 401.708 598.593C401.708 594.577 396.88 590.838 388.113 588.064C379.471 585.328 367.985 583.823 355.775 583.823C343.565 583.823 332.078 585.328 323.437 588.064C314.67 590.838 309.846 594.577 309.846 598.593C309.846 602.613 314.67 606.352 323.437 609.126ZM323.648 588.725C332.224 586.009 343.634 584.515 355.775 584.515C367.916 584.515 379.326 586.009 387.906 588.725C396.236 591.36 401.015 594.958 401.015 598.593C401.015 602.232 396.236 605.829 387.906 608.465C379.326 611.181 367.916 612.675 355.775 612.675C343.634 612.675 332.224 611.181 323.648 608.465C315.314 605.829 310.538 602.232 310.538 598.593C310.538 594.958 315.314 591.36 323.648 588.725Z" fill="white"/>
<path d="M410.758 591.8C410.758 599.769 390.349 606.227 365.175 606.227C339.997 606.227 319.588 599.769 319.588 591.8C319.588 583.834 339.997 577.376 365.175 577.376C390.349 577.376 410.758 583.834 410.758 591.8Z" fill="#F2C144"/>
<path d="M410.758 592.291H319.588V577.428H410.758V592.291Z" fill="#F2C144"/>
<path d="M410.758 577.711C410.758 585.677 390.349 592.139 365.175 592.139C339.997 592.139 319.588 585.677 319.588 577.711C319.588 569.745 339.997 563.284 365.175 563.284C390.349 563.284 410.758 569.745 410.758 577.711Z" fill="#EEBC3C"/>
<path fill-rule="evenodd" clip-rule="evenodd" d="M338.204 588.24C346.849 590.976 358.333 592.485 370.542 592.485C382.756 592.485 394.239 590.976 402.881 588.24C411.647 585.47 416.475 581.727 416.475 577.711C416.475 573.695 411.647 569.956 402.881 567.182C394.239 564.446 382.756 562.938 370.542 562.938C358.333 562.938 346.849 564.446 338.204 567.182C329.441 569.956 324.613 573.695 324.613 577.711C324.613 581.727 329.441 585.47 338.204 588.24ZM338.415 567.839C346.991 565.124 358.402 563.629 370.542 563.629C382.687 563.629 394.097 565.124 402.673 567.839C411.004 570.478 415.783 574.076 415.783 577.711C415.783 581.347 411.004 584.947 402.673 587.583C394.097 590.299 382.687 591.793 370.542 591.793C358.402 591.793 346.991 590.299 338.415 587.583C330.081 584.947 325.305 581.347 325.305 577.711C325.305 574.076 330.081 570.478 338.415 567.839Z" fill="white"/>
<path d="M336.28 536.058H343.856V539.319H336.28V547.901H332.809V539.319H325.229V536.058H332.809V528.13H336.28V536.058Z" fill="#363E44"/>
<path fill-rule="evenodd" clip-rule="evenodd" d="M376.239 550.966C376.239 547.919 377.211 545.411 379.156 543.443C381.098 541.478 383.597 540.496 386.649 540.496C389.702 540.496 392.204 541.471 394.163 543.425C396.118 545.383 397.098 547.977 397.098 551.212V553.692C397.098 556.739 396.125 559.247 394.177 561.215C392.235 563.18 389.747 564.166 386.718 564.166C383.69 564.166 381.188 563.194 379.208 561.25C377.225 559.306 376.239 556.718 376.239 553.481V550.966ZM381.06 553.678C381.06 555.518 381.572 557.03 382.597 558.209C383.621 559.385 384.995 559.977 386.718 559.977C388.397 559.977 389.736 559.399 390.737 558.244C391.74 557.088 392.239 555.522 392.239 553.536V550.945C392.239 549.105 391.733 547.6 390.719 546.435C389.705 545.266 388.349 544.684 386.649 544.684C384.995 544.684 383.649 545.262 382.614 546.414C381.576 547.569 381.06 549.126 381.06 551.087V553.678ZM359.744 557.286L363.416 559.589L388.255 519.862L384.587 517.559L359.744 557.286ZM356.287 525.051C356.287 526.867 356.799 528.368 357.824 529.544C358.848 530.724 360.222 531.312 361.949 531.312C363.6 531.312 364.936 530.741 365.946 529.596C366.96 528.455 367.469 526.891 367.469 524.909V522.353C367.469 520.534 366.967 519.029 365.967 517.839C364.963 516.653 363.6 516.058 361.876 516.058C360.153 516.058 358.789 516.653 357.789 517.839C356.789 519.029 356.287 520.582 356.287 522.495V525.051ZM354.384 514.833C352.439 516.812 351.466 519.326 351.466 522.374V524.819C351.466 528.053 352.456 530.644 354.435 532.588C356.415 534.532 358.917 535.501 361.949 535.501C364.953 535.501 367.428 534.532 369.373 532.588C371.318 530.644 372.29 528.136 372.29 525.065V522.585C372.29 519.42 371.328 516.843 369.407 514.85C367.486 512.861 364.974 511.865 361.876 511.865C358.824 511.865 356.329 512.858 354.384 514.833Z" fill="#363E44"/>
</svg>
