<svg width="27" height="28" viewBox="0 0 27 28" fill="none" xmlns="http://www.w3.org/2000/svg">
<path fill-rule="evenodd" clip-rule="evenodd" d="M3.24953 0.398164L19.681 9.07484L15.5373 12.8035L1.40471 0.0560245C1.94956 -0.0758648 2.59445 0.0199844 3.24953 0.398164ZM0 2.10026C0 1.81088 0.0481434 1.55753 0.118577 1.32264L14.1891 14.0148L0.115829 26.6717C0.0481434 26.4394 0 26.1888 0 25.9037V2.10026ZM25.7392 12.274L21.3536 9.95796L16.8614 13.9972L21.437 18.1261L25.704 15.9016C27.787 14.7748 27.0272 12.961 25.7392 12.274ZM3.24861 27.604C2.57685 27.9919 1.91617 28.0798 1.36298 27.933L15.5114 15.2083L19.7302 19.0136L3.24861 27.604Z" fill="white"/>
</svg>
