<svg width="609" height="575" viewBox="0 0 609 575" fill="none" xmlns="http://www.w3.org/2000/svg">
<path fill-rule="evenodd" clip-rule="evenodd" d="M587.205 286.136H593.371V306.993H587.205C586.651 309.995 585.863 312.917 584.86 315.738L590.199 318.814L579.761 336.876L574.41 333.79C572.449 336.087 570.309 338.227 568.008 340.188L571.098 345.534L553.017 355.959L549.936 350.626C547.112 351.627 544.192 352.416 541.185 352.967V359.13H520.306V352.967C517.299 352.416 514.375 351.627 511.551 350.626L508.47 355.959L490.393 345.534L493.478 340.188C491.177 338.227 489.038 336.087 487.076 333.79L481.725 336.876L471.288 318.814L476.626 315.738C475.624 312.917 474.835 309.995 474.281 306.993H468.115V286.136H474.281C474.835 283.13 475.624 280.212 476.626 277.391L471.288 274.311L481.725 256.25L487.076 259.334C489.038 257.04 491.177 254.898 493.478 252.94L490.393 247.592L508.47 237.168L511.551 242.498C514.375 241.499 517.299 240.714 520.306 240.16V233.997H541.185V240.16C544.192 240.714 547.112 241.499 549.936 242.498L553.017 237.168L571.098 247.592L568.008 252.94C570.309 254.898 572.449 257.04 574.41 259.334L579.761 256.25L590.199 274.311L584.86 277.391C585.863 280.212 586.651 283.13 587.205 286.136ZM547.595 339.516C559.754 335.174 569.389 325.548 573.739 313.4C587.401 275.227 552.097 239.964 513.891 253.611C501.732 257.951 492.097 267.581 487.748 279.725C474.085 317.898 509.389 353.165 547.595 339.516Z" fill="#F4F4F5"/>
<path d="M460.945 537.886H215.941L344.126 74.2445L589.132 74.2445L460.945 537.886Z" fill="#EEEEEF"/>
<path fill-rule="evenodd" clip-rule="evenodd" d="M215.733 565.6H444.325C458.811 565.6 473.864 553.781 477.878 539.259L607.988 68.6425C610 61.3757 608.992 54.591 605.147 49.5381C601.512 44.7576 595.732 42.124 588.864 42.124H360.273C345.787 42.124 330.734 53.9393 326.719 68.464L196.609 539.078C194.6 546.346 195.608 553.13 199.449 558.184C203.085 562.967 208.868 565.6 215.733 565.6ZM327.367 68.6425C331.305 54.3901 346.068 42.7936 360.273 42.7936H588.864C595.518 42.7936 601.111 45.3334 604.612 49.9443C608.327 54.8275 609.295 61.4025 607.341 68.464L477.235 539.078C473.293 553.331 458.53 564.928 444.325 564.928H215.733C209.082 564.928 203.489 562.389 199.983 557.778C196.273 552.895 195.303 546.318 197.256 539.259L327.367 68.6425Z" fill="#F2C144"/>
<path d="M512.434 306.566H290.668L343.029 117.169L564.797 117.169L512.434 306.566Z" fill="#F7F7F7"/>
<path d="M403.67 510.215H260.296L271.008 472.445H414.381L403.67 510.215Z" fill="#F7F7F7"/>
<path d="M462.873 396.478L464.89 389.035L355.528 389.647L351.494 404.531L460.856 403.924L462.873 396.478Z" fill="white"/>
<path d="M454.647 385.288L416.71 385.499L418.613 378.463L456.554 378.252L454.647 385.288Z" fill="white"/>
<path d="M450.599 364.052L422.474 364.21L424.378 357.174L452.506 357.016L450.599 364.052Z" fill="white"/>
<path d="M457.503 374.738L419.561 374.949L421.467 367.916L459.409 367.705L457.503 374.738Z" fill="white"/>
<path fill-rule="evenodd" clip-rule="evenodd" d="M310.669 365.95C332.864 348.368 361.169 348.211 373.891 365.598C386.613 382.985 378.931 411.334 356.737 428.915C334.542 446.5 306.236 446.658 293.515 429.271C280.793 411.881 288.474 383.535 310.669 365.95ZM305.048 397.594L314.978 411.166L332.303 397.443L322.374 383.871L305.048 397.594Z" fill="white"/>
<path d="M196.062 230.22L43.5007 230.22L43.5007 138.599H196.062V230.22Z" fill="#EEEEEF"/>
<path d="M134.347 230.22H53.4058L53.4058 165.821H134.347V230.22Z" fill="white"/>
<path d="M130.401 178.099H57.3517C57.1665 178.099 57.0161 177.948 57.0161 177.763C57.0161 177.579 57.1665 177.428 57.3517 177.428H130.401C130.587 177.428 130.737 177.579 130.737 177.763C130.737 177.948 130.587 178.099 130.401 178.099Z" fill="#EEEEEF"/>
<path d="M130.401 187.765H57.3517C57.1665 187.765 57.0161 187.614 57.0161 187.429C57.0161 187.244 57.1665 187.093 57.3517 187.093H130.401C130.587 187.093 130.737 187.244 130.737 187.429C130.737 187.614 130.587 187.765 130.401 187.765Z" fill="#EEEEEF"/>
<path d="M130.401 197.431H57.3517C57.1665 197.431 57.0161 197.28 57.0161 197.095C57.0161 196.907 57.1665 196.759 57.3517 196.759H130.401C130.587 196.759 130.737 196.907 130.737 197.095C130.737 197.28 130.587 197.431 130.401 197.431Z" fill="#EEEEEF"/>
<path d="M130.401 207.093H57.3517C57.1665 207.093 57.0161 206.945 57.0161 206.757C57.0161 206.573 57.1665 206.421 57.3517 206.421H130.401C130.587 206.421 130.737 206.573 130.737 206.757C130.737 206.945 130.587 207.093 130.401 207.093Z" fill="#EEEEEF"/>
<path d="M130.401 216.759H57.3517C57.1665 216.759 57.0161 216.608 57.0161 216.423C57.0161 216.238 57.1665 216.087 57.3517 216.087H130.401C130.587 216.087 130.737 216.238 130.737 216.423C130.737 216.608 130.587 216.759 130.401 216.759Z" fill="#EEEEEF"/>
<path d="M224.161 6.1357L144.395 77.8346L144.395 229.682L303.926 229.682V77.8346L224.161 6.1357Z" fill="#F4F4F5"/>
<path d="M303.929 72.3699C303.848 72.3699 303.768 72.3437 303.704 72.2868L224.163 0.785339L144.621 72.2868C144.483 72.4093 144.27 72.4006 144.147 72.2606C144.023 72.1205 144.034 71.9105 144.173 71.788L223.938 0.085289C224.066 -0.0284729 224.26 -0.0284729 224.388 0.085289L304.151 71.788C304.291 71.9105 304.301 72.1205 304.177 72.2606C304.11 72.3349 304.019 72.3699 303.929 72.3699Z" fill="#EEEEEF"/>
<path d="M279.635 215.669H232.191V145.015H279.635V215.669Z" fill="#EEEEEF"/>
<path d="M384.053 200.51H418.45V129.856H384.053V200.51Z" fill="#EEEEEF"/>
<path d="M310.538 230.398L145.266 230.398C145.081 230.398 144.931 230.247 144.931 230.062C144.931 229.877 145.081 229.726 145.266 229.726L310.538 229.726C310.723 229.726 310.874 229.877 310.874 230.062C310.874 230.247 310.723 230.398 310.538 230.398Z" fill="white"/>
<path d="M219.723 206.045H157.574V145.015H219.723V206.045Z" fill="#EEEEEF"/>
<path d="M290.013 138.597L157.573 138.597V121.108L290.013 121.108V138.597Z" fill="#EEEEEF"/>
<path d="M290.011 112.138L158.31 112.138V77.3015L224.178 17.6975L290.011 77.3015V112.138Z" fill="#EEEEEF"/>
<path d="M188.602 109.581C188.205 109.581 187.884 109.431 187.884 109.245V53.666C187.884 53.4798 188.205 53.33 188.602 53.33C188.998 53.33 189.32 53.4798 189.32 53.666V109.245C189.32 109.431 188.998 109.581 188.602 109.581Z" fill="white"/>
<path d="M260.483 109.581C260.088 109.581 259.765 109.431 259.765 109.245V53.666C259.765 53.4798 260.088 53.33 260.483 53.33C260.879 53.33 261.201 53.4798 261.201 53.666V109.245C261.201 109.431 260.879 109.581 260.483 109.581Z" fill="white"/>
<path d="M188.602 109.581C188.205 109.581 187.884 109.431 187.884 109.245V53.666C187.884 53.4798 188.205 53.33 188.602 53.33C188.998 53.33 189.32 53.4798 189.32 53.666V109.245C189.32 109.431 188.998 109.581 188.602 109.581Z" fill="white"/>
<path d="M260.483 109.581C260.088 109.581 259.765 109.431 259.765 109.245V53.666C259.765 53.4798 260.088 53.33 260.483 53.33C260.879 53.33 261.201 53.4798 261.201 53.666V109.245C261.201 109.431 260.879 109.581 260.483 109.581Z" fill="white"/>
<path d="M189.032 204.348C188.634 204.348 188.313 204.198 188.313 204.011V147.306C188.313 147.118 188.634 146.969 189.032 146.969C189.428 146.969 189.75 147.118 189.75 147.306V204.011C189.75 204.198 189.428 204.348 189.032 204.348Z" fill="white"/>
<path d="M531.672 288.767L232.949 288.767L293.399 70.1228L592.119 70.1228L531.672 288.767Z" fill="#363E44"/>
<path d="M563.323 105.283L301.741 105.283L305.61 91.0924L567.193 91.0924L563.323 105.283Z" fill="white"/>
<path d="M525.905 176.372L288.492 176.372L299.166 137.816L536.578 137.816L525.905 176.372Z" fill="#F2C144"/>
<path d="M321.004 157.627C319.697 162.354 314.725 166.189 309.898 166.189C305.068 166.189 302.215 162.354 303.522 157.627C304.829 152.9 309.801 149.066 314.632 149.066C319.455 149.066 322.311 152.9 321.004 157.627Z" fill="white"/>
<path d="M346.523 157.627C345.216 162.354 340.243 166.189 335.413 166.189C330.586 166.189 327.733 162.354 329.037 157.627C330.347 152.9 335.32 149.066 340.147 149.066C344.977 149.066 347.83 152.9 346.523 157.627Z" fill="white"/>
<path d="M372.041 157.627C370.731 162.354 365.759 166.189 360.931 166.189C356.101 166.189 353.248 162.354 354.555 157.627C355.862 152.9 360.835 149.066 365.665 149.066C370.496 149.066 373.345 152.9 372.041 157.627Z" fill="white"/>
<path d="M397.556 157.627C396.249 162.354 391.277 166.189 386.446 166.189C381.623 166.189 378.767 162.354 380.074 157.627C381.381 152.9 386.353 149.066 391.184 149.066C396.011 149.066 398.867 152.9 397.556 157.627Z" fill="white"/>
<path d="M423.075 157.627C421.771 162.354 416.792 166.189 411.968 166.189C407.138 166.189 404.282 162.354 405.592 157.627C406.896 152.9 411.871 149.066 416.699 149.066C421.529 149.066 424.385 152.9 423.075 157.627Z" fill="white"/>
<path d="M448.595 157.623C447.288 162.353 442.314 166.186 437.487 166.186C432.657 166.186 429.801 162.353 431.113 157.623C432.42 152.896 437.393 149.064 442.221 149.064C447.048 149.064 449.903 152.896 448.595 157.623Z" fill="white"/>
<path d="M474.115 157.624C472.807 162.353 467.831 166.186 463.005 166.186C458.175 166.186 455.322 162.353 456.627 157.624C457.935 152.896 462.91 149.062 467.737 149.062C472.567 149.062 475.42 152.896 474.115 157.624Z" fill="white"/>
<path d="M509.947 234.368L272.536 234.368L283.209 195.806L520.622 195.806L509.947 234.368Z" fill="#F2C144"/>
<path d="M305.048 215.62C303.739 220.349 298.766 224.181 293.937 224.181C289.112 224.181 286.256 220.349 287.565 215.62C288.87 210.892 293.843 207.06 298.672 207.06C303.501 207.06 306.357 210.892 305.048 215.62Z" fill="#7655DA"/>
<path d="M330.565 215.62C329.26 220.349 324.283 224.181 319.458 224.181C314.629 224.181 311.773 220.349 313.082 215.62C314.387 210.892 319.364 207.06 324.189 207.06C329.018 207.06 331.874 210.892 330.565 215.62Z" fill="#7655DA"/>
<path d="M356.082 215.62C354.777 220.349 349.804 224.181 344.975 224.181C340.146 224.181 337.29 220.349 338.599 215.62C339.908 210.892 344.881 207.06 349.71 207.06C354.535 207.06 357.391 210.892 356.082 215.62Z" fill="#7655DA"/>
<path d="M381.603 215.62C380.294 220.349 375.321 224.181 370.492 224.181C365.663 224.181 362.811 220.349 364.116 215.62C365.425 210.892 370.398 207.06 375.227 207.06C380.056 207.06 382.908 210.892 381.603 215.62Z" fill="#7655DA"/>
<path fill-rule="evenodd" clip-rule="evenodd" d="M224.883 220.954C225.024 220.967 225.165 220.974 225.303 220.974C229.108 220.974 232.491 216.705 232.947 211.204C233.175 208.46 232.655 205.82 231.481 203.762C230.283 201.663 228.548 200.42 226.598 200.259C222.625 199.93 219.007 204.306 218.534 210.012C218.306 212.752 218.83 215.395 220.004 217.451C221.199 219.55 222.934 220.793 224.883 220.954ZM219.202 210.065C219.628 204.91 222.716 200.914 226.172 200.914C226.296 200.914 226.42 200.917 226.544 200.927C228.266 201.071 229.813 202.197 230.897 204.094C232.004 206.035 232.498 208.541 232.279 211.147C231.836 216.484 228.558 220.584 224.937 220.285C223.216 220.144 221.669 219.019 220.585 217.118C219.477 215.177 218.987 212.675 219.202 210.065Z" fill="#363E44"/>
<path d="M223.601 208.631C224.91 193.018 224.296 183.802 218.085 176.531C209.738 166.761 195.612 167.691 194.139 167.812C193.198 167.889 179.761 168.168 172.396 179.5C165.123 190.69 166.554 210.079 172.859 221.703L160.392 250.445C156.477 259.063 158.05 262.579 166.676 266.492L168.629 267.378C177.255 271.288 187.422 267.476 191.337 258.858L199.484 240.927C205.163 242.952 210.212 243.328 213.205 241.347C218.566 237.797 222.058 227.019 223.601 208.631Z" fill="#BC8271"/>
<path d="M232.212 212.144C232.189 212.144 232.165 212.141 232.142 212.138L204.373 206.113C204.192 206.072 204.077 205.894 204.117 205.713C204.156 205.532 204.336 205.417 204.516 205.454L232.286 211.479C232.467 211.52 232.581 211.698 232.541 211.879C232.507 212.037 232.37 212.144 232.212 212.144" fill="#363E44"/>
<path d="M199.923 240.95C199.879 240.95 199.835 240.94 199.792 240.923C199.621 240.849 199.542 240.655 199.614 240.483L202.422 233.84C202.494 233.669 202.691 233.588 202.861 233.662C203.032 233.733 203.112 233.931 203.04 234.102L200.232 240.745C200.178 240.873 200.054 240.95 199.923 240.95" fill="#363E44"/>
<path d="M198.614 215.422C198.472 215.422 198.341 215.335 198.295 215.191C197.547 212.897 197.104 211.432 196.781 210.364C196.624 209.844 196.494 209.414 196.37 209.024C196.314 208.85 196.412 208.658 196.588 208.604C196.763 208.547 196.954 208.645 197.01 208.819C197.134 209.212 197.265 209.646 197.424 210.17C197.746 211.238 198.187 212.698 198.932 214.982C198.99 215.16 198.894 215.348 198.718 215.405C198.683 215.419 198.648 215.422 198.614 215.422Z" fill="#363E44"/>
<path d="M222.118 177.071C217.089 163.977 191.622 158.657 177.308 166.42C157.952 176.917 152.945 203.853 163.087 218.399C166.49 223.28 172.733 230.2 182.732 230.108C188.571 230.06 190.84 222.532 191.352 220.709C187.225 217.848 185.767 212.48 187.794 208.166C189.835 203.819 194.88 201.665 199.08 202.774C201.865 203.509 203.538 205.486 204.188 206.35C217.521 197.148 225.7 186.402 222.118 177.071Z" fill="#363E44"/>
<path d="M147.774 104.231C103 109.539 105.469 53.7134 105.469 53.7134L61.5509 116.186C66.5007 140.751 88.422 148.886 88.422 148.886C69.7701 149.121 59.1959 136.232 54.0011 126.923L41.7688 144.323C41.7688 144.323 52.8366 187.296 96.5554 169.879C140.275 152.463 167.33 189.581 167.33 189.581L174.597 169.879C174.597 169.879 192.548 98.9231 147.774 104.231Z" fill="#363E44"/>
<path d="M162.36 180.661C162.293 180.661 162.226 180.64 162.167 180.599C162.016 180.493 161.979 180.281 162.087 180.13C164.573 176.604 167.144 172.959 168.876 168.936C169.835 166.705 170.291 164.87 170.309 163.158C170.331 161.026 169.611 159.078 168.332 157.811C166.894 156.384 164.731 155.908 163.071 156.654C162.053 157.113 161.276 158.031 160.883 159.232C160.434 160.608 160.566 162.135 161.235 163.312C162.312 165.205 164.575 166.345 166.742 166.082C166.929 166.058 167.094 166.191 167.116 166.373C167.138 166.557 167.007 166.725 166.824 166.749C164.395 167.043 161.859 165.767 160.652 163.644C159.891 162.306 159.739 160.577 160.245 159.023C160.697 157.64 161.603 156.579 162.796 156.042C164.702 155.186 167.173 155.717 168.805 157.332C170.212 158.729 171.005 160.855 170.98 163.165C170.961 164.969 170.488 166.886 169.492 169.2C167.733 173.287 165.141 176.964 162.635 180.517C162.569 180.609 162.466 180.661 162.36 180.661Z" fill="white"/>
<path d="M159.427 178.559C159.364 178.559 159.3 178.543 159.243 178.506C159.088 178.401 159.045 178.193 159.146 178.039L162.518 172.88C162.62 172.726 162.827 172.682 162.982 172.783C163.138 172.887 163.181 173.095 163.079 173.25L159.708 178.408C159.643 178.506 159.536 178.559 159.427 178.559Z" fill="white"/>
<path d="M164.898 185.531C164.817 185.531 164.736 185.504 164.671 185.443C154.092 175.754 139.23 170.585 124.917 171.608C116.969 172.179 109.165 174.549 101.618 176.841C99.8808 177.371 98.0835 177.915 96.3143 178.431C87.4431 181.014 77.0286 183.401 67.0604 181.544C58.1001 179.876 47.9363 173.59 45.4287 163.31C45.3845 163.131 45.4951 162.949 45.6749 162.905C45.8534 162.861 46.0365 162.972 46.0807 163.151C48.5168 173.141 58.4351 179.255 67.1832 180.885C77.0158 182.715 87.3321 180.345 96.1267 177.786C97.8929 177.27 99.6872 176.726 101.423 176.2C109.006 173.894 116.846 171.514 124.869 170.94C139.361 169.9 154.412 175.139 165.124 184.947C165.261 185.072 165.271 185.284 165.145 185.423C165.079 185.494 164.989 185.531 164.898 185.531" fill="#363E44"/>
<path d="M137.893 195.275C136.544 195.275 135.195 194.925 134.034 194.223C131.659 192.789 130.221 189.968 130.456 187.204C130.665 184.752 132.157 182.25 134.656 180.168C138.625 176.863 144.052 175.282 149.179 175.933C154.304 176.588 159.161 179.483 162.171 183.678C162.279 183.829 162.245 184.04 162.094 184.148C161.943 184.255 161.734 184.222 161.626 184.071C158.723 180.024 154.038 177.229 149.095 176.601C144.149 175.97 138.914 177.498 135.086 180.685C132.725 182.653 131.318 184.988 131.124 187.261C130.91 189.777 132.219 192.343 134.381 193.649C136.544 194.956 139.427 194.919 141.557 193.562C143.179 192.527 144.499 190.428 143.883 188.413C143.591 187.459 142.663 186.643 141.574 186.378C140.775 186.183 140.03 186.318 139.49 186.741L140.128 187.728C140.229 187.883 140.185 188.091 140.029 188.192C139.873 188.292 139.666 188.249 139.565 188.094L138.626 186.64L138.813 186.449C139.53 185.713 140.594 185.448 141.731 185.726C143.063 186.049 144.16 187.026 144.525 188.218C145.239 190.553 143.753 192.957 141.917 194.129C140.72 194.892 139.307 195.275 137.893 195.275" fill="#363E44"/>
<path d="M27.6911 484.871C27.6911 484.871 20.5702 521.872 39.0338 539.202H375.462C375.462 539.202 414.935 445.043 208.14 452.851L27.6911 484.871Z" fill="#363E44"/>
<path d="M26.1421 346.236C23.7649 346.746 13.5209 370.991 3.24362 396.778C-8.51049 426.269 13.1232 458.339 44.8976 458.568L55.4091 458.641L98.7977 339.136L26.1421 346.236Z" fill="#BC8271"/>
<path d="M61.2273 349.792H9.36377L34.721 298.79C47.3943 273.303 73.426 257.182 101.915 257.182H181.096L61.2273 349.792Z" fill="#7655DA"/>
<path d="M287.333 284.654C316.636 296.5 343.562 303.308 362.498 316.977C385.945 333.903 395.294 359.25 384.619 370.588C373.431 382.477 329.025 391.156 269.679 364.295C271.058 340.043 272.723 308.936 287.333 284.654Z" fill="#BC8271"/>
<path d="M337.337 316.81C344.496 300.044 362.438 262.588 377.772 234.783C393.876 205.581 421.913 164.815 427.572 168.804C430.795 171.077 428.125 177.426 419.849 193.925C421.102 193.509 424.954 193.001 427.596 195.6C431.509 199.445 429.521 203.641 429.493 204.086C429.91 203.91 434.417 202.142 437.468 204.275C440.908 206.674 441.741 210.218 441.076 213.437C442.112 213.034 446.101 211.934 448.974 214.067C451.931 216.266 453.425 220.7 451.518 224.038C448.026 230.16 437.29 248.151 433.132 257.541C424.954 276.022 404.728 345.55 385.838 369.141C371.967 346.971 351.212 338.983 337.337 316.81" fill="#BC8271"/>
<path d="M409.482 200.769C409.412 200.769 409.338 200.746 409.277 200.699L404.881 197.253C404.734 197.139 404.71 196.927 404.824 196.783C404.938 196.635 405.15 196.608 405.294 196.722L409.69 200.171C409.838 200.286 409.861 200.497 409.747 200.642C409.68 200.726 409.583 200.769 409.482 200.769Z" fill="#363E44"/>
<path d="M420.65 209.501C420.576 209.501 420.506 209.478 420.442 209.431L416.046 205.982C415.902 205.867 415.875 205.656 415.989 205.511C416.103 205.364 416.314 205.34 416.462 205.454L420.858 208.9C421.002 209.014 421.029 209.226 420.915 209.374C420.848 209.458 420.751 209.501 420.65 209.501" fill="#363E44"/>
<path d="M432.117 218.266C432.049 218.266 431.975 218.242 431.915 218.191L427.519 214.747C427.37 214.632 427.347 214.419 427.461 214.274C427.576 214.126 427.785 214.099 427.93 214.217L432.326 217.665C432.474 217.78 432.498 217.989 432.383 218.134C432.316 218.218 432.218 218.266 432.117 218.266" fill="#363E44"/>
<path d="M442.354 226.431C442.279 226.431 442.21 226.407 442.145 226.358L437.75 222.912C437.605 222.795 437.578 222.585 437.691 222.441C437.804 222.296 438.017 222.269 438.165 222.382L442.56 225.829C442.704 225.943 442.732 226.156 442.619 226.304C442.55 226.386 442.45 226.431 442.354 226.431" fill="#363E44"/>
<path d="M150.901 257.182C235.45 255.183 305.427 287.177 305.427 287.177L297.333 379.018L261.404 379.683L239.521 453.513L212.935 452.754L195.301 499.41L9.36377 501.516L44.6942 376.204C44.6942 376.204 62.9655 259.257 150.901 257.182Z" fill="#7655DA"/>
<path d="M261.759 379.428C261.582 379.428 261.431 379.287 261.424 379.109C261.3 376.103 261.236 372.409 261.175 368.832C261.112 365.265 261.048 361.577 260.924 358.585C260.917 358.4 261.061 358.246 261.246 358.236C261.417 358.232 261.588 358.373 261.595 358.558C261.719 361.557 261.783 365.252 261.847 368.822C261.907 372.392 261.971 376.083 262.095 379.079C262.102 379.267 261.957 379.421 261.773 379.428C261.769 379.428 261.763 379.428 261.759 379.428Z" fill="#363E44"/>
<path d="M51.303 346.572C51.2718 346.572 51.2403 346.565 51.209 346.558C51.0309 346.504 50.9288 346.32 50.9809 346.142L61.0668 311.586C61.1185 311.408 61.3041 311.304 61.483 311.358C61.6608 311.408 61.7628 311.596 61.7108 311.774L51.6252 346.33C51.5822 346.474 51.4483 346.572 51.303 346.572" fill="#363E44"/>
<path d="M101.916 257.182C101.916 257.182 109.779 241.192 129.964 241.138C150.149 241.081 224.34 256.853 224.34 256.853L227.702 265.215C227.702 265.215 168.805 299.942 126.493 304.943C84.1812 309.947 85.9926 271.005 101.916 257.182Z" fill="#F2C144"/>
<path d="M144.495 274.552C135.961 274.552 130.392 272.93 126.757 270.851C121.4 267.788 120.667 263.956 120.639 263.795C120.606 263.61 120.728 263.435 120.911 263.405C121.092 263.372 121.268 263.492 121.3 263.677C121.314 263.751 122.057 267.408 127.133 270.293C135.983 275.321 156.513 277.585 204.06 259.805C204.233 259.741 204.427 259.828 204.492 260.003C204.557 260.178 204.469 260.369 204.295 260.436C175.857 271.069 156.996 274.552 144.495 274.552" fill="#363E44"/>
<path fill-rule="evenodd" clip-rule="evenodd" d="M442.588 553.368C456.548 567.319 475.118 575 494.862 575C514.611 575 533.177 567.319 547.141 553.368C561.105 539.417 568.795 520.871 568.795 501.14V443.831C568.795 443.642 568.644 443.495 568.459 443.495H421.266C421.081 443.495 420.93 443.642 420.93 443.831V501.14C420.93 520.871 428.625 539.417 442.588 553.368ZM421.603 444.166V501.14C421.603 541.495 454.465 574.328 494.862 574.328C535.26 574.328 568.122 541.495 568.122 501.14V444.166H421.603ZM500.736 536.438C500.921 536.438 501.072 536.286 501.072 536.102V505.315C507.661 502.762 512.07 496.357 512.07 489.301C512.07 479.82 504.354 472.109 494.862 472.109C485.375 472.109 477.655 479.82 477.655 489.301C477.655 496.357 482.068 502.762 488.653 505.315V536.102C488.653 536.286 488.8 536.438 488.989 536.438H500.736ZM500.403 535.766H489.326V505.083C489.326 504.942 489.237 504.817 489.107 504.767C482.662 502.373 478.328 496.156 478.328 489.301C478.328 480.193 485.746 472.781 494.862 472.781C503.984 472.781 511.401 480.193 511.401 489.301C511.401 496.156 507.067 502.373 500.622 504.767C500.487 504.817 500.403 504.942 500.403 505.083V535.766Z" fill="#363E44"/>
<path d="M560.352 428.757C560.169 428.757 560.02 428.606 560.02 428.421C560.02 392.532 530.789 363.334 494.864 363.334C458.94 363.334 429.713 392.532 429.713 428.421C429.713 428.606 429.559 428.757 429.376 428.757C429.189 428.757 429.039 428.606 429.039 428.421C429.039 392.163 458.566 362.662 494.864 362.662C531.163 362.662 560.689 392.163 560.689 428.421C560.689 428.606 560.539 428.757 560.352 428.757" fill="#363E44"/>
</svg>
